<svg width="71" height="83" viewBox="0 0 71 83" fill="none" xmlns="http://www.w3.org/2000/svg">
<path d="M70.4724 10.9324H70.4658C70.4342 9.97832 69.6652 9.21529 68.7075 9.19783V9.19455H65.0426L65.0415 75.1316L65.0426 75.1425C65.0426 76.125 64.2562 76.9186 63.2788 76.9371V76.9426L7.75265 76.9404C6.86259 76.9404 6.1296 76.2909 5.98671 75.4394V71.5075H57.6941V71.5042C57.7061 71.5042 57.717 71.5075 57.728 71.5075C58.7205 71.5075 59.5233 70.7052 59.5233 69.7107C59.5233 69.7042 59.5212 69.6976 59.5212 69.6976L59.5233 1.79787C59.5233 0.80451 58.7205 4.41346e-07 57.728 0.00109204C57.717 0.00109204 57.7061 0.00436609 57.6952 0.00436609V0H51.4168V14.2148V31.9981V38.1536C51.4168 38.6274 51.0318 39.0105 50.5584 39.0105C50.3097 39.0105 50.0905 38.9003 49.9334 38.7322L43.7521 32.5461H43.7313C43.5939 32.3878 43.3976 32.283 43.1718 32.283C42.946 32.283 42.7497 32.3878 42.6122 32.5461H42.5915L36.3643 38.778H36.3545C36.2018 38.9199 36 39.0116 35.7742 39.0116C35.3009 39.0116 34.9169 38.6274 34.9169 38.1547V31.9992V14.2159V0.00109204H2.32176C1.32917 0.00109204 0.526367 0.80451 0.526367 1.79787C0.526367 1.82079 0.532912 1.84371 0.532912 1.86664V66.5298V80.5099C0.531822 80.5318 0.526367 80.5525 0.526367 80.5743C0.526367 80.5962 0.531822 80.6169 0.532912 80.6387V80.7217H0.541638C0.617991 81.6441 1.38043 82.3711 2.32176 82.3711L68.6759 82.3744H68.7075V82.3711C69.6849 82.3536 70.4713 81.56 70.4713 80.5776L70.4702 80.5667L70.4724 10.9324Z" fill="#282C4B"/>
</svg>
