<?xml version="1.0" encoding="UTF-8"?>
<svg width="18px" height="18px" viewBox="0 0 18 18" xmlns="http://www.w3.org/2000/svg" xmlns:xlink="http://www.w3.org/1999/xlink" version="1.1">
 <!-- Generated by Pixelmator Pro 1.8 -->
 <path id="Path" d="M10.41 9 L16.71 2.71 C16.898 2.522 17.004 2.266 17.004 2 17.004 1.734 16.898 1.478 16.71 1.29 16.522 1.102 16.266 0.996 16 0.996 15.734 0.996 15.478 1.102 15.29 1.29 L9 7.59 2.71 1.29 C2.522 1.102 2.266 0.996 2 0.996 1.734 0.996 1.478 1.102 1.29 1.29 1.102 1.478 0.996 1.734 0.996 2 0.996 2.266 1.102 2.522 1.29 2.71 L7.59 9 1.29 15.29 C1.196 15.383 1.122 15.494 1.071 15.615 1.02 15.737 0.994 15.868 0.994 16 0.994 16.132 1.02 16.263 1.071 16.385 1.122 16.506 1.196 16.617 1.29 16.71 1.383 16.804 1.494 16.878 1.615 16.929 1.737 16.98 1.868 17.006 2 17.006 2.132 17.006 2.263 16.98 2.385 16.929 2.506 16.878 2.617 16.804 2.71 16.71 L9 10.41 15.29 16.71 C15.383 16.804 15.493 16.878 15.615 16.929 15.737 16.98 15.868 17.006 16 17.006 16.132 17.006 16.263 16.98 16.385 16.929 16.506 16.878 16.617 16.804 16.71 16.71 16.804 16.617 16.878 16.506 16.929 16.385 16.98 16.263 17.006 16.132 17.006 16 17.006 15.868 16.98 15.737 16.929 15.615 16.878 15.494 16.804 15.383 16.71 15.29 Z" fill="#167bde" fill-opacity="1" stroke="none"/>
</svg>
