<svg width="74" height="81" viewBox="0 0 74 81" fill="none" xmlns="http://www.w3.org/2000/svg">
<path d="M73.8468 5.38433H73.8421V1.61998C73.8421 0.724777 73.1179 0 72.2234 0H69.931H43.0853H41.4665L17.1865 24.2997V26.5911V27.5397V29.2037H17.1996C17.2679 30.0352 17.9566 30.6907 18.8052 30.6907H24.8778C25.7265 30.6907 26.4142 30.0352 26.4834 29.2037H26.5031V27.5397H43.0862C43.9807 27.5397 44.7049 26.8149 44.7049 25.9197V9.32379H64.5302V71.6762H26.5021V68.8558H26.4956C26.4947 67.9624 25.7704 67.2376 24.8769 67.2376H18.8043C17.9107 67.2376 17.1865 67.9615 17.1855 68.8558V77.0886V79.38C17.1855 80.2752 17.9098 81 18.8043 81H20.2845H70.7413H72.2215C73.116 81 73.8402 80.2752 73.8402 79.38V77.0877H73.8449L73.8468 5.38433Z" fill="#282C4B"/>
<path d="M36.6936 48.9647C36.6936 40.6803 29.9857 33.9625 21.704 33.9625C13.4223 33.9625 6.71436 40.6803 6.71436 48.9647C6.71436 51.7645 7.49472 54.3771 8.829 56.6198L1.51664 63.9378L1.54564 63.9668C0.768091 64.7113 0.288086 65.7638 0.288086 66.9577C0.288086 69.2641 2.1239 71.0685 4.42661 71.0685C5.60277 71.0685 6.6526 70.5947 7.40302 69.8287L7.42361 69.8493L14.9315 62.3356C16.9676 63.3703 19.2637 63.9659 21.704 63.9659C29.9857 63.9649 36.6936 57.2491 36.6936 48.9647ZM13.004 48.9637C13.004 44.1553 16.8983 40.257 21.7049 40.257C26.5115 40.257 30.4049 44.1553 30.4049 48.9637C30.4049 53.7731 26.5115 57.6714 21.7049 57.6714C16.8974 57.6714 13.004 53.7731 13.004 48.9637Z" fill="#282C4B"/>
</svg>
