<?xml version="1.0" encoding="UTF-8"?>
<svg width="225px" height="136px" viewBox="0 0 225 136" xmlns="http://www.w3.org/2000/svg" xmlns:xlink="http://www.w3.org/1999/xlink" version="1.1">
 <!-- Generated by Pixelmator Pro 1.8 -->
 <g id="group">
  <defs>
   <linearGradient id="linear-gradient" gradientUnits="userSpaceOnUse" x1="112.551" y1="2.276" x2="112.551" y2="133.498">
    <stop offset="0" stop-color="#3b9eef" stop-opacity="1"/>
    <stop offset="1" stop-color="#95d9a4" stop-opacity="1"/>
   </linearGradient>
  </defs>
  <path id="Path" d="M4.171 45.459 C4.171 21.61 23.504 2.276 47.353 2.276 L177.748 2.276 C201.597 2.276 220.931 21.61 220.931 45.459 L220.931 90.318 C220.931 114.166 201.598 133.498 177.751 133.498 L4.171 133.498 Z" fill-opacity="1" fill="url(#linear-gradient)" stroke="none"/>
 </g>
 <path id="Path-1" d="M144.652 78.669 L128.255 70.847 121.552 67.65 C121.67 67.569 121.786 67.488 121.903 67.407 L131.027 67.407 C132.439 67.407 133.585 66.262 133.585 64.849 L133.585 58.118 133.561 58.118 C133.296 49.204 130.338 41.315 125.848 36.11 122.691 32.052 118.154 29.493 113.069 29.493 107.557 29.493 102.689 32.505 99.528 37.172 95.527 42.358 92.93 49.791 92.682 58.118 L92.659 58.118 92.659 64.849 C92.659 66.262 93.804 67.407 95.217 67.407 L104.367 67.407 C104.547 67.53 104.73 67.648 104.913 67.767 L98.447 70.777 81.518 78.661 C80.176 79.29 79.262 80.729 79.112 82.386 79.078 82.625 79.059 82.868 79.059 83.115 L79.059 98.921 79.059 101.758 C79.059 104.257 80.8 106.282 82.949 106.282 L143.294 106.282 C145.444 106.282 147.184 104.256 147.184 101.758 L147.184 98.921 147.184 83.115 C147.184 82.177 146.937 81.294 146.506 80.557 146.088 79.729 145.45 79.054 144.652 78.669 Z" fill="#ffffff" fill-opacity="1" stroke="none"/>
 <path id="Path-2" d="M84.756 70.824 L84.756 63.741 84.787 63.741 C85.07 54.222 87.556 45.538 91.515 38.73 89.589 37.555 87.423 36.839 85.096 36.839 77.331 36.839 71.046 44.154 71.046 53.186 71.046 59.505 74.134 64.974 78.645 67.696 L59.602 76.56 C58.413 77.118 57.632 78.458 57.632 79.956 L57.632 94.986 C57.632 97 59.04 98.631 60.77 98.631 L73.356 98.631 73.356 82.86 C73.356 78.779 75.613 75.088 79.113 73.448 Z" fill="#ffffff" fill-opacity="1" stroke="none"/>
 <path id="Path-3" d="M166.644 76.782 L147.601 67.918 C152.113 65.195 155.201 59.727 155.201 53.407 155.201 44.375 148.915 37.06 141.151 37.06 138.823 37.06 136.658 37.777 134.731 38.951 138.691 45.759 141.175 54.443 141.459 63.962 L141.491 63.962 141.491 71.045 147.133 73.673 C150.634 75.312 152.891 79.003 152.891 83.085 L152.891 98.856 165.477 98.856 C167.207 98.856 168.615 97.224 168.615 95.21 L168.615 80.177 C168.614 78.679 167.832 77.34 166.644 76.782 Z" fill="#ffffff" fill-opacity="1" stroke="none"/>
</svg>
