<?xml version="1.0" encoding="UTF-8"?>
<svg width="225px" height="136px" viewBox="0 0 225 136" xmlns="http://www.w3.org/2000/svg" xmlns:xlink="http://www.w3.org/1999/xlink" version="1.1">
 <!-- Generated by Pixelmator Pro 1.8 -->
 <g id="group">
  <defs>
   <linearGradient id="linear-gradient" gradientUnits="userSpaceOnUse" x1="112.448" y1="2.276" x2="112.448" y2="133.498">
    <stop offset="0" stop-color="#3b9eef" stop-opacity="1"/>
    <stop offset="1" stop-color="#95d9a4" stop-opacity="1"/>
   </linearGradient>
  </defs>
  <path id="Path" d="M4.068 45.459 C4.068 21.61 23.402 2.276 47.251 2.276 L177.646 2.276 C201.495 2.276 220.828 21.61 220.828 45.459 L220.828 90.318 C220.828 114.166 201.496 133.498 177.648 133.498 L4.068 133.498 Z" fill-opacity="1" fill="url(#linear-gradient)" stroke="none"/>
 </g>
 <path id="Path-1" d="M162.869 32.491 L151.737 21.355 C151.345 20.965 150.817 20.744 150.263 20.744 149.71 20.744 149.181 20.965 148.79 21.355 L108.561 61.584 100.722 53.747 C99.908 52.934 98.589 52.934 97.774 53.747 L86.639 64.882 C86.248 65.272 86.028 65.803 86.028 66.356 86.028 66.907 86.248 67.438 86.639 67.83 L107.022 88.207 C107.412 88.597 107.941 88.818 108.495 88.818 108.52 88.818 108.543 88.805 108.567 88.805 108.588 88.805 108.61 88.816 108.632 88.816 109.167 88.816 109.697 88.612 110.106 88.205 L162.869 35.439 C163.683 34.623 163.683 33.304 162.869 32.491 Z" fill="#ffffff" fill-opacity="1" stroke="none"/>
 <path id="Path-2" d="M137.019 70.321 L137.019 97.648 80.136 97.648 80.136 40.765 120.25 40.765 133.138 27.879 73.957 27.879 73.957 27.888 C73.927 27.888 73.9 27.879 73.869 27.879 70.268 27.879 67.353 30.758 67.265 34.336 L67.25 34.336 67.25 104.077 67.267 104.077 C67.353 107.6 70.184 110.431 73.707 110.517 L73.707 110.534 73.869 110.534 143.285 110.534 143.448 110.534 143.448 110.517 C146.972 110.431 149.802 107.6 149.889 104.077 L149.905 104.077 149.905 57.435 Z" fill="#ffffff" fill-opacity="1" stroke="none"/>
</svg>
