<?xml version="1.0" encoding="UTF-8"?>
<svg width="225px" height="136px" viewBox="0 0 225 136" xmlns="http://www.w3.org/2000/svg" xmlns:xlink="http://www.w3.org/1999/xlink" version="1.1">
 <!-- Generated by Pixelmator Pro 1.8 -->
 <g id="group">
  <defs>
   <linearGradient id="linear-gradient" gradientUnits="userSpaceOnUse" x1="112.596" y1="2.276" x2="112.596" y2="133.498">
    <stop offset="0" stop-color="#3b9eef" stop-opacity="1"/>
    <stop offset="1" stop-color="#95d9a4" stop-opacity="1"/>
   </linearGradient>
  </defs>
  <path id="Path" d="M4.216 45.459 C4.216 21.61 23.549 2.276 47.398 2.276 L177.793 2.276 C201.642 2.276 220.975 21.61 220.975 45.459 L220.975 90.318 C220.975 114.166 201.643 133.498 177.795 133.498 L4.216 133.498 Z" fill-opacity="1" fill="url(#linear-gradient)" stroke="none"/>
 </g>
 <path id="Path-1" d="M150.543 47.374 C151.914 47.374 153.024 46.285 153.024 44.949 L153.024 37.767 C153.024 36.428 151.914 35.337 150.543 35.337 L144.971 35.337 144.971 33.389 C144.971 31.237 143.226 29.493 141.075 29.493 L76.152 29.493 C74 29.493 72.257 31.236 72.257 33.389 L72.257 106.275 C72.257 108.42 74.002 110.17 76.152 110.17 L141.074 110.17 C143.225 110.17 144.97 108.42 144.97 106.275 L144.97 104.245 150.542 104.245 C151.912 104.245 153.023 103.159 153.023 101.82 L153.023 94.637 C153.023 93.298 151.912 92.207 150.542 92.207 L144.97 92.207 144.97 85.282 150.542 85.282 C151.912 85.282 153.023 84.196 153.023 82.863 L153.023 75.68 C153.023 74.341 151.912 73.25 150.542 73.25 L144.97 73.25 144.97 66.325 150.542 66.325 C151.912 66.325 153.023 65.235 153.023 63.9 L153.023 56.717 C153.023 55.383 151.912 54.292 150.542 54.292 L144.97 54.292 144.97 47.372 150.543 47.372 Z M127.695 86.455 C127.695 87.855 126.719 88.992 125.514 88.992 L91.68 88.992 C90.475 88.992 89.499 87.856 89.499 86.455 L89.499 76.001 C89.499 74.961 90.043 74.026 90.869 73.642 L104.113 67.474 C100.974 65.582 98.826 61.776 98.826 57.384 98.826 51.104 103.199 46.016 108.596 46.016 113.995 46.016 118.368 51.104 118.368 57.384 118.368 61.712 116.292 65.47 113.233 67.393 L126.342 73.648 C127.161 74.043 127.697 74.967 127.697 76.002 Z" fill="#ffffff" fill-opacity="1" stroke="none"/>
</svg>
