<svg width="452" height="492" viewBox="0 0 452 492" fill="none" xmlns="http://www.w3.org/2000/svg">
<path d="M474.5 3V1.5H473H91C41.5705 1.5 1.5 41.5705 1.5 91V401C1.5 450.429 41.5705 490.5 91 490.5H473H474.5V489V3Z" fill="url(#paint0_linear_66_544)" stroke="url(#paint1_linear_66_544)" stroke-width="3"/>
<circle cx="226.802" cy="192.267" r="5.80217" fill="#282C4B"/>
<circle cx="226.802" cy="168.035" r="5.80217" fill="#282C4B"/>
<circle cx="226.802" cy="143.802" r="5.80217" fill="#282C4B"/>
<circle cx="226.802" cy="216.5" r="5.80217" fill="#282C4B"/>
<circle cx="226.802" cy="240.732" r="5.80217" fill="#282C4B"/>
<circle cx="226.802" cy="264.965" r="5.80217" fill="#282C4B"/>
<circle cx="251.035" cy="192.267" r="5.80217" fill="#282C4B"/>
<circle cx="251.035" cy="168.035" r="5.80217" fill="#282C4B"/>
<circle cx="251.035" cy="143.802" r="5.80217" fill="#282C4B"/>
<circle cx="251.035" cy="216.5" r="5.80217" fill="#282C4B"/>
<circle cx="251.035" cy="240.732" r="5.80217" fill="#282C4B"/>
<circle cx="251.035" cy="264.965" r="5.80217" fill="#282C4B"/>
<circle cx="275.267" cy="192.267" r="5.80217" fill="#282C4B"/>
<circle cx="275.267" cy="168.035" r="5.80217" fill="#282C4B"/>
<circle cx="275.267" cy="143.802" r="5.80217" fill="#282C4B"/>
<circle cx="275.267" cy="216.5" r="5.80217" fill="#282C4B"/>
<circle cx="275.267" cy="240.732" r="5.80217" fill="#282C4B"/>
<circle cx="275.267" cy="264.965" r="5.80217" fill="#282C4B"/>
<circle cx="299.5" cy="192.267" r="5.80217" fill="#282C4B"/>
<circle cx="299.5" cy="168.035" r="5.80217" fill="#282C4B"/>
<circle cx="299.5" cy="143.802" r="5.80217" fill="#282C4B"/>
<circle cx="299.5" cy="216.5" r="5.80217" fill="#282C4B"/>
<circle cx="299.5" cy="240.732" r="5.80217" fill="#282C4B"/>
<circle cx="299.5" cy="264.965" r="5.80217" fill="#282C4B"/>
<circle cx="323.733" cy="192.267" r="5.80217" fill="#282C4B"/>
<circle cx="323.733" cy="168.035" r="5.80217" fill="#282C4B"/>
<circle cx="323.733" cy="143.802" r="5.80217" fill="#282C4B"/>
<circle cx="323.733" cy="216.5" r="5.80217" fill="#282C4B"/>
<circle cx="323.733" cy="240.732" r="5.80217" fill="#282C4B"/>
<circle cx="323.733" cy="264.965" r="5.80217" fill="#282C4B"/>
<circle cx="347.965" cy="192.267" r="5.80217" fill="#282C4B"/>
<circle cx="347.965" cy="168.035" r="5.80217" fill="#282C4B"/>
<circle cx="347.965" cy="143.802" r="5.80217" fill="#282C4B"/>
<circle cx="347.965" cy="216.5" r="5.80217" fill="#282C4B"/>
<circle cx="347.965" cy="240.732" r="5.80217" fill="#282C4B"/>
<circle cx="347.965" cy="264.965" r="5.80217" fill="#282C4B"/>
<circle cx="372.198" cy="192.267" r="5.80217" fill="#282C4B"/>
<circle cx="372.198" cy="168.035" r="5.80217" fill="#282C4B"/>
<circle cx="372.198" cy="143.802" r="5.80217" fill="#282C4B"/>
<circle cx="372.198" cy="216.5" r="5.80217" fill="#282C4B"/>
<circle cx="372.198" cy="240.732" r="5.80217" fill="#282C4B"/>
<circle cx="372.198" cy="264.965" r="5.80217" fill="#282C4B"/>
<defs>
<linearGradient id="paint0_linear_66_544" x1="238" y1="3" x2="238" y2="489" gradientUnits="userSpaceOnUse">
<stop stop-color="#167BDE"/>
<stop offset="1" stop-color="#ADE98F" stop-opacity="0.5"/>
</linearGradient>
<linearGradient id="paint1_linear_66_544" x1="6.82114" y1="483.073" x2="552.575" y2="-9.76082" gradientUnits="userSpaceOnUse">
<stop stop-color="white"/>
<stop offset="1" stop-color="#365234" stop-opacity="0"/>
</linearGradient>
</defs>
</svg>
