<svg width="146" height="25" viewBox="0 0 146 25" fill="none" xmlns="http://www.w3.org/2000/svg">
<path d="M15.688 15.184L13.176 8.08C13.0267 7.70667 12.8667 7.26933 12.696 6.768C12.536 6.26667 12.3813 5.72267 12.232 5.136C12.0827 5.73333 11.9227 6.288 11.752 6.8C11.592 7.30133 11.4373 7.73867 11.288 8.112L8.792 15.184H15.688ZM23.752 24H20.024C19.608 24 19.2667 23.904 19 23.712C18.744 23.5093 18.552 23.2533 18.424 22.944L16.856 18.512H7.608L6.04 22.944C5.93333 23.2107 5.74667 23.456 5.48 23.68C5.21333 23.8933 4.87733 24 4.472 24H0.712L9.784 0.783998H14.696L23.752 24ZM32.0128 24H27.1808V0.783998H32.0128V24Z" fill="#167BDE"/>
<path d="M50.7243 5.232C50.5749 5.47733 50.4203 5.65867 50.2603 5.776C50.1109 5.88267 49.9136 5.936 49.6683 5.936C49.4336 5.936 49.1776 5.856 48.9003 5.696C48.6336 5.52533 48.3189 5.344 47.9563 5.152C47.5936 4.96 47.1776 4.784 46.7083 4.624C46.2389 4.45333 45.6896 4.368 45.0603 4.368C43.9509 4.368 43.1189 4.61867 42.5643 5.12C42.0096 5.61067 41.7323 6.256 41.7323 7.056C41.7323 7.568 41.8816 7.99467 42.1803 8.336C42.4896 8.66667 42.8896 8.95467 43.3803 9.2C43.8816 9.44533 44.4469 9.664 45.0763 9.856C45.7056 10.048 46.3509 10.2613 47.0123 10.496C47.6736 10.72 48.3189 10.9867 48.9483 11.296C49.5776 11.6053 50.1376 11.9947 50.6283 12.464C51.1296 12.9333 51.5296 13.5093 51.8283 14.192C52.1376 14.864 52.2923 15.6853 52.2923 16.656C52.2923 17.712 52.1056 18.704 51.7323 19.632C51.3696 20.5493 50.8416 21.3547 50.1483 22.048C49.4549 22.7307 48.5963 23.2693 47.5723 23.664C46.5589 24.0587 45.4069 24.256 44.1163 24.256C43.3803 24.256 42.6443 24.1813 41.9083 24.032C41.1829 23.8827 40.4789 23.6747 39.7963 23.408C39.1243 23.1413 38.4896 22.8213 37.8923 22.448C37.2949 22.0747 36.7723 21.6587 36.3243 21.2L37.7323 18.928C37.8496 18.7573 38.0043 18.6187 38.1963 18.512C38.3883 18.3947 38.5909 18.336 38.8043 18.336C39.0923 18.336 39.3963 18.4427 39.7163 18.656C40.0363 18.8693 40.4043 19.104 40.8203 19.36C41.2363 19.616 41.7163 19.8507 42.2603 20.064C42.8149 20.2773 43.4763 20.384 44.2443 20.384C45.3643 20.384 46.2283 20.128 46.8363 19.616C47.4549 19.104 47.7643 18.3413 47.7643 17.328C47.7643 16.7413 47.6096 16.2667 47.3003 15.904C47.0016 15.5413 46.6069 15.2373 46.1163 14.992C45.6256 14.7467 45.0656 14.5387 44.4363 14.368C43.8069 14.1867 43.1616 13.9893 42.5003 13.776C41.8389 13.5627 41.1936 13.3067 40.5643 13.008C39.9349 12.7093 39.3749 12.3147 38.8843 11.824C38.3936 11.3333 37.9936 10.7253 37.6843 10C37.3856 9.27467 37.2363 8.37333 37.2363 7.296C37.2363 6.432 37.4069 5.59467 37.7483 4.784C38.0896 3.97333 38.5909 3.25333 39.2523 2.624C39.9136 1.99467 40.7243 1.488 41.6843 1.104C42.6549 0.719998 43.7643 0.527998 45.0123 0.527998C46.4096 0.527998 47.7003 0.746665 48.8843 1.184C50.0789 1.61067 51.0869 2.208 51.9083 2.976L50.7243 5.232ZM73.4853 4.656H66.7013V24H61.8853V4.656H55.1013V0.783998H73.4853V4.656ZM87.1498 20.16C87.9284 20.16 88.6271 20.032 89.2458 19.776C89.8644 19.5093 90.3871 19.136 90.8138 18.656C91.2404 18.176 91.5658 17.5947 91.7898 16.912C92.0138 16.2293 92.1258 15.4613 92.1258 14.608V0.783998H96.9258V14.608C96.9258 16.016 96.6964 17.312 96.2378 18.496C95.7898 19.6693 95.1444 20.6827 94.3018 21.536C93.4591 22.3893 92.4351 23.056 91.2298 23.536C90.0244 24.016 88.6644 24.256 87.1498 24.256C85.6351 24.256 84.2698 24.016 83.0538 23.536C81.8484 23.056 80.8244 22.3893 79.9818 21.536C79.1391 20.6827 78.4884 19.6693 78.0298 18.496C77.5818 17.312 77.3578 16.016 77.3578 14.608V0.783998H82.1578V14.608C82.1578 15.4613 82.2698 16.2293 82.4938 16.912C82.7178 17.5947 83.0431 18.176 83.4698 18.656C83.8964 19.136 84.4191 19.5093 85.0378 19.776C85.6564 20.032 86.3604 20.16 87.1498 20.16ZM123.586 12.384C123.586 14.08 123.298 15.6427 122.722 17.072C122.156 18.4907 121.351 19.712 120.306 20.736C119.271 21.76 118.023 22.56 116.562 23.136C115.1 23.712 113.479 24 111.698 24H102.77V0.783998H111.698C113.479 0.783998 115.1 1.072 116.562 1.648C118.023 2.224 119.271 3.02933 120.306 4.064C121.351 5.088 122.156 6.30933 122.722 7.728C123.298 9.14667 123.586 10.6987 123.586 12.384ZM118.658 12.384C118.658 11.168 118.498 10.0747 118.178 9.104C117.858 8.13333 117.399 7.312 116.802 6.64C116.204 5.968 115.474 5.45067 114.61 5.088C113.756 4.72533 112.786 4.544 111.698 4.544H107.602V20.24H111.698C112.786 20.24 113.756 20.064 114.61 19.712C115.474 19.3493 116.204 18.832 116.802 18.16C117.399 17.4773 117.858 16.6507 118.178 15.68C118.498 14.7093 118.658 13.6107 118.658 12.384ZM137.452 15.072V24H132.652V15.072L124.22 0.783998H128.444C128.86 0.783998 129.19 0.885332 129.436 1.088C129.692 1.28 129.894 1.53067 130.044 1.84L133.852 9.152C134.108 9.64267 134.337 10.1013 134.54 10.528C134.753 10.9547 134.94 11.3813 135.1 11.808C135.249 11.3813 135.42 10.9547 135.612 10.528C135.814 10.0907 136.038 9.632 136.284 9.152L140.06 1.84C140.188 1.584 140.38 1.344 140.636 1.12C140.892 0.895999 141.222 0.783998 141.628 0.783998H145.884L137.452 15.072Z" fill="#7DD5B3"/>
</svg>
