<?xml version="1.0" encoding="UTF-8"?>
<svg width="20px" height="12px" viewBox="0 0 20 12" xmlns="http://www.w3.org/2000/svg" xmlns:xlink="http://www.w3.org/1999/xlink" version="1.1">
 <!-- Generated by Pixelmator Pro 1.8 -->
 <path id="Path" d="M9 2 L19 2 C19.265 2 19.52 1.895 19.707 1.707 19.895 1.52 20 1.265 20 1 20 0.735 19.895 0.48 19.707 0.293 19.52 0.105 19.265 0 19 0 L9 0 C8.735 0 8.48 0.105 8.293 0.293 8.105 0.48 8 0.735 8 1 8 1.265 8.105 1.52 8.293 1.707 8.48 1.895 8.735 2 9 2 Z M19 10 L1 10 C0.735 10 0.48 10.105 0.293 10.293 0.105 10.48 -0 10.735 -0 11 -0 11.265 0.105 11.52 0.293 11.707 0.48 11.895 0.735 12 1 12 L19 12 C19.265 12 19.52 11.895 19.707 11.707 19.895 11.52 20 11.265 20 11 20 10.735 19.895 10.48 19.707 10.293 19.52 10.105 19.265 10 19 10 Z M1 7 L19 7 C19.265 7 19.52 6.895 19.707 6.707 19.895 6.52 20 6.265 20 6 20 5.735 19.895 5.48 19.707 5.293 19.52 5.105 19.265 5 19 5 L1 5 C0.735 5 0.48 5.105 0.293 5.293 0.105 5.48 -0 5.735 -0 6 -0 6.265 0.105 6.52 0.293 6.707 0.48 6.895 0.735 7 1 7 Z" fill="#167bde" fill-opacity="1" stroke="none"/>
</svg>
