<?xml version="1.0" encoding="UTF-8"?>
<svg width="225px" height="136px" viewBox="0 0 225 136" xmlns="http://www.w3.org/2000/svg" xmlns:xlink="http://www.w3.org/1999/xlink" version="1.1">
 <!-- Generated by Pixelmator Pro 1.8 -->
 <g id="group">
  <defs>
   <linearGradient id="linear-gradient" gradientUnits="userSpaceOnUse" x1="112.904" y1="1.776" x2="112.904" y2="132.998">
    <stop offset="0" stop-color="#3b9eef" stop-opacity="1"/>
    <stop offset="1" stop-color="#95d9a4" stop-opacity="1"/>
   </linearGradient>
  </defs>
  <path id="Path" d="M4.524 44.959 C4.524 21.11 23.858 1.776 47.707 1.776 L178.102 1.776 C201.951 1.776 221.284 21.11 221.284 44.959 L221.284 89.818 C221.284 113.666 201.952 132.998 178.104 132.998 L4.524 132.998 Z" fill-opacity="1" fill="url(#linear-gradient)" stroke="none"/>
 </g>
 <path id="Path-1" d="M101.326 32.889 L84.91 32.889 C82.165 32.896 79.946 35.092 79.874 37.821 L79.826 37.821 79.826 53.173 C79.829 53.248 79.849 53.319 79.849 53.396 79.849 53.472 79.829 53.544 79.826 53.619 L79.826 53.877 79.799 53.877 C79.547 57.444 76.604 60.267 72.977 60.267 71.402 60.267 69.969 59.717 68.81 58.826 L68.81 58.961 C67.274 58.076 65.497 57.563 63.597 57.563 57.813 57.563 53.125 62.252 53.125 68.037 53.125 73.822 57.813 78.51 63.597 78.51 65.497 78.51 67.274 77.996 68.81 77.111 L68.81 77.227 C69.965 76.347 71.392 75.804 72.957 75.804 76.584 75.804 79.527 78.627 79.778 82.195 L79.826 82.195 79.826 100.694 79.852 100.694 C79.864 103.477 82.123 105.732 84.91 105.732 84.984 105.732 85.053 105.713 85.126 105.71 L102.223 105.71 102.223 105.655 C103.798 105.655 105.081 104.376 105.081 102.798 105.081 102.51 105.024 102.238 104.942 101.976 104.284 100.459 103.913 98.788 103.913 97.03 103.913 90.16 109.481 84.592 116.348 84.592 123.217 84.592 128.784 90.16 128.784 97.03 128.784 98.741 128.437 100.371 127.812 101.855 127.7 102.162 127.628 102.488 127.628 102.835 127.628 104.413 128.905 105.691 130.487 105.691 130.649 105.691 130.805 105.669 130.961 105.643 L130.961 105.71 147.373 105.71 C147.447 105.714 147.516 105.732 147.589 105.732 150.38 105.732 152.65 103.466 152.65 100.671 152.65 100.532 152.621 100.401 152.61 100.264 L152.61 83.46 C152.61 81.88 151.327 80.601 149.749 80.601 149.433 80.601 149.136 80.665 148.852 80.759 148.847 80.761 148.84 80.763 148.834 80.764 148.769 80.786 148.699 80.799 148.636 80.826 L148.636 80.815 C147.527 81.139 146.358 81.321 145.145 81.321 138.275 81.321 132.71 75.754 132.71 68.886 132.71 62.018 138.275 56.451 145.145 56.451 146.359 56.451 147.528 56.633 148.636 56.956 L148.636 56.924 C148.98 57.071 149.359 57.152 149.756 57.152 151.334 57.152 152.615 55.872 152.615 54.293 152.615 54.276 152.61 54.261 152.61 54.244 L152.61 37.949 C152.61 35.175 150.37 32.925 147.6 32.893 L147.6 32.887 130.961 32.887 130.961 32.946 C129.549 33.123 128.459 34.311 128.459 35.768 L128.333 35.768 C128.617 36.812 128.782 37.905 128.782 39.038 128.782 45.907 123.216 51.475 116.347 51.475 109.48 51.475 103.912 45.907 103.912 39.038 103.912 37.905 104.076 36.812 104.362 35.768 L104.242 35.768 C104.242 35.758 104.244 35.748 104.244 35.737 104.244 34.45 103.391 33.376 102.221 33.018 L102.221 32.887 101.451 32.887 C101.429 32.887 101.41 32.881 101.388 32.881 101.367 32.883 101.348 32.888 101.326 32.889 Z" fill="#ffffff" fill-opacity="1" stroke="none"/>
</svg>
